<svg width="48" height="48" xmlns="http://www.w3.org/2000/svg" xmlns:xlink="http://www.w3.org/1999/xlink"><use xlink:href="#path0_fill" fill="#F2994A"/><use xlink:href="#path1_fill" transform="translate(12 12)" fill="#FFF"/><defs><path id="path0_fill" fill-rule="evenodd" d="M0 24C0 10.745 10.745 0 24 0s24 10.745 24 24-10.745 24-24 24S0 37.255 0 24z"/><path id="path1_fill" fill-rule="evenodd" d="M7.5 0a.5.5 0 0 1 .5.5V4h3V.5a.5.5 0 0 1 1 0V4h4V.5a.5.5 0 0 1 1 0V4h1.5c.828 0 1.5.674 1.5 1.5V7h3.5a.5.5 0 0 1 0 1H20v3h3.5a.5.5 0 0 1 0 1H20v4h3.5a.5.5 0 0 1 0 1H20v1.5c0 .826-.672 1.5-1.5 1.5H17v3.5a.5.5 0 0 1-1 0V20h-3v3.5a.5.5 0 0 1-1 0V20H8v3.5a.5.5 0 0 1-1 0V20H5.5c-.826 0-1.5-.674-1.5-1.5V17H.5a.5.5 0 0 1 0-1H4v-3H.5a.5.5 0 0 1 0-1H4V8H.5a.5.5 0 0 1 0-1H4V5.5C4 4.674 4.674 4 5.5 4H7V.5a.5.5 0 0 1 .5-.5zm-2 5c-.274 0-.5.226-.5.5v13c0 .274.226.5.5.5h13c.274 0 .5-.226.5-.5v-13c0-.274-.226-.5-.5-.5h-13zm3 2C7.676 7 7 7.676 7 8.5v7c0 .824.676 1.5 1.5 1.5h7c.825 0 1.5-.676 1.5-1.5v-7c0-.824-.675-1.5-1.5-1.5h-7zM6 8.5C6 7.124 7.124 6 8.5 6h7C16.877 6 18 7.124 18 8.5v7c0 1.376-1.123 2.5-2.5 2.5h-7A2.506 2.506 0 0 1 6 15.5v-7zm3 1a.5.5 0 0 1 .5-.5h4a.5.5 0 0 1 0 1h-4a.5.5 0 0 1-.5-.5zm0 2a.5.5 0 0 1 .5-.5h2a.5.5 0 0 1 0 1h-2a.5.5 0 0 1-.5-.5zm3 3a.5.5 0 0 1 .5-.5h2a.5.5 0 0 1 0 1h-2a.5.5 0 0 1-.5-.5z"/></defs></svg>