<svg width="48" height="48" xmlns="http://www.w3.org/2000/svg" xmlns:xlink="http://www.w3.org/1999/xlink"><use xlink:href="#path0_fill" fill="#00B898"/><use xlink:href="#path1_fill" transform="translate(12 12)" fill="#FFF"/><defs><path id="path0_fill" fill-rule="evenodd" d="M0 24C0 10.745 10.745 0 24 0s24 10.745 24 24-10.745 24-24 24S0 37.255 0 24z"/><path id="path1_fill" fill-rule="evenodd" d="M7.646.146a.5.5 0 0 1 .707 0L12.207 4h4.501A2.5 2.5 0 1 1 20 7.292v4.501l3.853 3.853a.5.5 0 0 1 0 .708 11.433 11.433 0 0 1-12.93 2.3l3.953 4.517A.5.5 0 0 1 14.5 24H.5a.5.5 0 0 1-.376-.83l6.73-7.692A11.429 11.429 0 0 1 7.647.146zm.707 15.5a10.432 10.432 0 0 0 14.432.346L8.008 1.215a10.43 10.43 0 0 0 .345 14.431zm-.853.613L1.602 23h11.796L7.5 16.26zM19 10.793V7.5c-.51 0-.984-.153-1.379-.415L16.457 8.25 19 10.793zm-3.25-3.25l1.164-1.165A2.487 2.487 0 0 1 16.5 5h-3.293l2.543 2.543zm1.793-2.9A1.501 1.501 0 1 0 20.5 5a1.5 1.5 0 0 0-2.957-.357z"/></defs></svg>