<svg width="24" height="24" xmlns="http://www.w3.org/2000/svg" xmlns:xlink="http://www.w3.org/1999/xlink"><use xlink:href="#path0_fill" fill="#00B898"/><defs><path id="path0_fill" d="M5.5 24c-3 0-5.5-2.5-5.5-5.5S2.5 13 5.5 13H9V7.9c-1.7-.5-3-2-3-3.9 0-2.2 1.8-4 4-4s4 1.8 4 4c0 1.9-1.3 3.4-3 3.9V13h5.1c.4-1.7 2-3 3.9-3 2.2 0 4 1.8 4 4s-1.8 4-4 4c-1.9 0-3.4-1.3-3.9-3H11v3.5c0 3-2.5 5.5-5.5 5.5zm0-9C3.6 15 2 16.6 2 18.5S3.6 22 5.5 22 9 20.4 9 18.5V15H5.5zM20 12c-1.1 0-2 .9-2 2s.9 2 2 2 2-.9 2-2-.9-2-2-2zM10 2c-1.1 0-2 .9-2 2s.9 2 2 2 2-.9 2-2-.9-2-2-2z"/></defs></svg>