<svg width="220" height="72" xmlns="http://www.w3.org/2000/svg" xmlns:xlink="http://www.w3.org/1999/xlink"><use xlink:href="#path0_fill" transform="matrix(2 0 0 2 12 12)" fill="#00B898"/><g transform="matrix(2 0 0 2 70 26.58)" fill="#FFF"><use xlink:href="#path1_fill"/><use xlink:href="#path2_fill"/><use xlink:href="#path3_fill"/><use xlink:href="#path4_fill"/><use xlink:href="#path5_fill"/><use xlink:href="#path6_fill"/><use xlink:href="#path7_fill"/><use xlink:href="#path8_fill"/></g><defs><path id="path0_fill" d="M5.5 24c-3 0-5.5-2.5-5.5-5.5S2.5 13 5.5 13H9V7.9c-1.7-.5-3-2-3-3.9 0-2.2 1.8-4 4-4s4 1.8 4 4c0 1.9-1.3 3.4-3 3.9V13h5.1c.4-1.7 2-3 3.9-3 2.2 0 4 1.8 4 4s-1.8 4-4 4c-1.9 0-3.4-1.3-3.9-3H11v3.5c0 3-2.5 5.5-5.5 5.5zm0-9C3.6 15 2 16.6 2 18.5S3.6 22 5.5 22 9 20.4 9 18.5V15H5.5zM20 12c-1.1 0-2 .9-2 2s.9 2 2 2 2-.9 2-2-.9-2-2-2zM10 2c-1.1 0-2 .9-2 2s.9 2 2 2 2-.9 2-2-.9-2-2-2z"/><path id="path1_fill" d="M5.904.18c-1.14.024-2.16.318-3.06.882A5.7 5.7 0 0 0 .738 3.348C.246 4.32 0 5.418 0 6.642c0 1.2.24 2.28.72 3.24a5.644 5.644 0 0 0 2.07 2.268c.9.54 1.932.81 3.096.81 1.152-.012 2.178-.294 3.078-.846a5.7 5.7 0 0 0 2.106-2.286c.504-.972.756-2.076.756-3.312 0-1.2-.246-2.28-.738-3.24a5.48 5.48 0 0 0-2.07-2.268C8.118.456 7.08.18 5.904.18zM2.106 6.624c0-.912.168-1.728.504-2.448.336-.72.798-1.278 1.386-1.674a3.406 3.406 0 0 1 1.944-.594c.744 0 1.398.198 1.962.594.576.396 1.02.942 1.332 1.638.312.696.468 1.488.468 2.376 0 .96-.168 1.8-.504 2.52-.336.708-.798 1.254-1.386 1.638a3.426 3.426 0 0 1-1.944.576c-.744 0-1.404-.198-1.98-.594-.564-.396-1.002-.942-1.314-1.638-.312-.708-.468-1.506-.468-2.394z"/><path id="path2_fill" d="M17.737 12.708l3.366-8.73h-2.106l-2.124 5.814-2.214-6.138-1.962.648 3.24 8.406h1.8z"/><path id="path3_fill" d="M29.965 8.28c0-1.32-.33-2.406-.99-3.258-.66-.852-1.632-1.278-2.916-1.278-.876 0-1.638.192-2.286.576a3.863 3.863 0 0 0-1.476 1.62c-.336.684-.504 1.482-.504 2.394 0 1.416.414 2.538 1.242 3.366.84.816 2.052 1.224 3.636 1.224 1.176 0 2.25-.336 3.222-1.008l-.612-1.476c-.516.264-.96.462-1.332.594-.36.12-.774.18-1.242.18-1.68 0-2.61-.78-2.79-2.34h6.048V8.28zm-6.012-.756c.084-.648.3-1.152.648-1.512.36-.36.828-.54 1.404-.54.564 0 1.014.174 1.35.522.336.348.558.858.666 1.53h-4.068z"/><path id="path4_fill" d="M33.507 7.146a7.619 7.619 0 0 1 1.584-1.098c.576-.3 1.08-.45 1.512-.45l-.414-1.62c-.42 0-.912.15-1.476.45a9.04 9.04 0 0 0-1.476.99l-.666-1.44h-1.08v8.73h2.016V7.146z"/><path id="path5_fill" d="M40.015 12.708V0l-2.016.198v12.51h2.016z"/><path id="path6_fill" d="M50.744 8.334c0 .912-.186 1.716-.558 2.412a3.961 3.961 0 0 1-1.584 1.62c-.684.384-1.482.576-2.394.576-.912 0-1.704-.192-2.376-.576a4.023 4.023 0 0 1-1.566-1.602c-.36-.696-.54-1.506-.54-2.43 0-.912.18-1.71.54-2.394.372-.696.9-1.236 1.584-1.62.684-.384 1.482-.576 2.394-.576.912 0 1.704.192 2.376.576a3.737 3.737 0 0 1 1.566 1.602c.372.696.558 1.5.558 2.412zm-4.536 2.862c.732 0 1.32-.27 1.764-.81.456-.54.684-1.218.684-2.034 0-.852-.222-1.542-.666-2.07-.432-.54-1.014-.81-1.746-.81-.72 0-1.308.27-1.764.81-.444.54-.672 1.224-.684 2.052 0 .852.216 1.542.648 2.07.444.528 1.032.792 1.764.792z"/><path id="path7_fill" d="M58.604 10.602a7.112 7.112 0 0 1-1.188.45c-.36.096-.762.144-1.206.144-.732 0-1.32-.264-1.764-.792-.432-.528-.648-1.218-.648-2.07.012-.828.24-1.512.684-2.052.456-.54 1.044-.81 1.764-.81.42 0 .804.048 1.152.144.36.096.774.246 1.242.45l.576-1.44c-.372-.264-.858-.474-1.458-.63-.6-.168-1.104-.252-1.512-.252-.912 0-1.71.192-2.394.576a3.961 3.961 0 0 0-1.584 1.62c-.36.684-.54 1.482-.54 2.394 0 .924.18 1.734.54 2.43a4.023 4.023 0 0 0 1.566 1.602c.672.384 1.464.576 2.376.576.42 0 .93-.078 1.53-.234.6-.156 1.086-.366 1.458-.63l-.594-1.476z"/><path id="path8_fill" d="M62.884 12.708V9.702l1.026-.954 2.43 3.96h2.34l-3.348-5.256 2.52-2.322L66.7 3.744l-3.816 3.618V0l-2.016.198v12.51h2.016z"/></defs></svg>