<svg width="48" height="48" xmlns="http://www.w3.org/2000/svg" xmlns:xlink="http://www.w3.org/1999/xlink"><use xlink:href="#path0_fill" fill="#702B84"/><g transform="translate(12 12)" fill="#FFF"><use xlink:href="#path1_fill"/><use xlink:href="#path2_fill"/><use xlink:href="#path3_fill"/><use xlink:href="#path4_fill"/><use xlink:href="#path5_fill"/><use xlink:href="#path6_fill"/><use xlink:href="#path7_fill"/><use xlink:href="#path8_fill"/><use xlink:href="#path9_fill"/><use xlink:href="#path10_fill"/><use xlink:href="#path11_fill"/><use xlink:href="#path12_fill"/><use xlink:href="#path13_fill"/><use xlink:href="#path14_fill"/><use xlink:href="#path15_fill"/><use xlink:href="#path16_fill"/></g><defs><path id="path0_fill" fill-rule="evenodd" d="M0 24C0 10.745 10.745 0 24 0s24 10.745 24 24-10.745 24-24 24S0 37.255 0 24z"/><path id="path1_fill" fill-rule="evenodd" d="M0 5.5A.5.5 0 0 1 .5 5h23a.5.5 0 0 1 .5.5v6a.5.5 0 0 1-.5.5H.5a.5.5 0 0 1-.5-.5v-6zM1 6v5h22V6H1z"/><path id="path2_fill" fill-rule="evenodd" d="M6.18.116A.5.5 0 0 1 6.5 0h11a.5.5 0 0 1 .32.116l6 5a.5.5 0 0 1-.64.768L17.319 1H6.681L.821 5.884a.5.5 0 0 1-.641-.768l6-5z"/><path id="path3_fill" fill-rule="evenodd" d="M13 8.5a1 1 0 1 1 2 0 1 1 0 0 1-2 0z"/><path id="path4_fill" fill-rule="evenodd" d="M16 8.5a1 1 0 1 1 2 0 1 1 0 0 1-2 0z"/><path id="path5_fill" fill-rule="evenodd" d="M19 8.5a1 1 0 1 1 2 0 1 1 0 0 1-2 0z"/><path id="path6_fill" fill-rule="evenodd" d="M3.5 8a.5.5 0 1 0 0 1 .5.5 0 0 0 0-1zM2 8.5a1.5 1.5 0 1 1 3 0 1.5 1.5 0 0 1-3 0z"/><path id="path7_fill" fill-rule="evenodd" d="M.5 11a.5.5 0 0 1 .5.5V17h22v-5.5a.5.5 0 0 1 1 0v6a.5.5 0 0 1-.5.5H.5a.5.5 0 0 1-.5-.5v-6a.5.5 0 0 1 .5-.5z"/><path id="path8_fill" fill-rule="evenodd" d="M13 14.5a1 1 0 1 1 2 0 1 1 0 0 1-2 0z"/><path id="path9_fill" fill-rule="evenodd" d="M16 14.5a1 1 0 1 1 2 0 1 1 0 0 1-2 0z"/><path id="path10_fill" fill-rule="evenodd" d="M19 14.5a1 1 0 1 1 2 0 1 1 0 0 1-2 0z"/><path id="path11_fill" fill-rule="evenodd" d="M3.5 14a.5.5 0 1 0 0 1 .5.5 0 0 0 0-1zm-1.5.5a1.5 1.5 0 1 1 3 0 1.5 1.5 0 0 1-3 0z"/><path id="path12_fill" fill-rule="evenodd" d="M.5 17a.5.5 0 0 1 .5.5v4A1.5 1.5 0 0 0 2.5 23h19a1.5 1.5 0 0 0 1.5-1.5v-4a.5.5 0 0 1 1 0v4a2.5 2.5 0 0 1-2.5 2.5h-19A2.5 2.5 0 0 1 0 21.5v-4a.5.5 0 0 1 .5-.5z"/><path id="path13_fill" fill-rule="evenodd" d="M13 20.5a1 1 0 1 1 2 0 1 1 0 0 1-2 0z"/><path id="path14_fill" fill-rule="evenodd" d="M16 20.5a1 1 0 1 1 2 0 1 1 0 0 1-2 0z"/><path id="path15_fill" fill-rule="evenodd" d="M19 20.5a1 1 0 1 1 2 0 1 1 0 0 1-2 0z"/><path id="path16_fill" fill-rule="evenodd" d="M3.5 20a.5.5 0 1 0 0 1 .5.5 0 0 0 0-1zm-1.5.5a1.5 1.5 0 1 1 3 0 1.5 1.5 0 0 1-3 0z"/></defs></svg>