<svg width="48" height="48" xmlns="http://www.w3.org/2000/svg" xmlns:xlink="http://www.w3.org/1999/xlink"><use xlink:href="#path0_fill" fill="#48B0F7"/><g transform="translate(12 12)" fill="#FFF"><use xlink:href="#path1_fill"/><use xlink:href="#path2_fill"/><use xlink:href="#path3_fill"/><use xlink:href="#path4_fill"/><use xlink:href="#path5_fill"/><use xlink:href="#path6_fill"/><use xlink:href="#path7_fill"/><use xlink:href="#path8_fill"/><use xlink:href="#path9_fill"/></g><defs><path id="path0_fill" fill-rule="evenodd" d="M0 24C0 10.745 10.745 0 24 0s24 10.745 24 24-10.745 24-24 24S0 37.255 0 24z"/><path id="path1_fill" fill-rule="evenodd" d="M2.5 1A1.5 1.5 0 0 0 1 2.5v19A1.5 1.5 0 0 0 2.5 23h19a1.5 1.5 0 0 0 1.5-1.5v-19A1.5 1.5 0 0 0 21.5 1h-19zM0 2.5A2.5 2.5 0 0 1 2.5 0h19A2.5 2.5 0 0 1 24 2.5v19a2.5 2.5 0 0 1-2.5 2.5h-19A2.5 2.5 0 0 1 0 21.5v-19z"/><path id="path2_fill" fill-rule="evenodd" d="M0 5.5A.5.5 0 0 1 .5 5h23a.5.5 0 0 1 0 1H.5a.5.5 0 0 1-.5-.5z"/><path id="path3_fill" fill-rule="evenodd" d="M3 3a1 1 0 1 1 2 0 1 1 0 0 1-2 0z"/><path id="path4_fill" fill-rule="evenodd" d="M6 3a1 1 0 1 1 2 0 1 1 0 0 1-2 0z"/><path id="path5_fill" fill-rule="evenodd" d="M9 3a1 1 0 1 1 2 0 1 1 0 0 1-2 0z"/><path id="path6_fill" fill-rule="evenodd" d="M3 7.5a.5.5 0 0 1 .5-.5h17a.5.5 0 0 1 .5.5v3a.5.5 0 0 1-.5.5h-17a.5.5 0 0 1-.5-.5v-3zM4 8v2h16V8H4z"/><path id="path7_fill" fill-rule="evenodd" d="M3 12.5a.5.5 0 0 1 .5-.5h3a.5.5 0 0 1 .5.5v8a.5.5 0 0 1-.5.5h-3a.5.5 0 0 1-.5-.5v-8zm1 .5v7h2v-7H4z"/><path id="path8_fill" fill-rule="evenodd" d="M9 12.5a.5.5 0 0 1 .5-.5h11a.5.5 0 0 1 .5.5v3a.5.5 0 0 1-.5.5h-11a.5.5 0 0 1-.5-.5v-3zm1 .5v2h10v-2H10z"/><path id="path9_fill" fill-rule="evenodd" d="M9 17.5a.5.5 0 0 1 .5-.5h11a.5.5 0 0 1 .5.5v3a.5.5 0 0 1-.5.5h-11a.5.5 0 0 1-.5-.5v-3zm1 .5v2h10v-2H10z"/></defs></svg>