<svg width="72" height="12" xmlns="http://www.w3.org/2000/svg" xmlns:xlink="http://www.w3.org/1999/xlink"><use xlink:href="#path0_stroke" transform="translate(11 7.5)" fill="#00B898"/><use xlink:href="#path0_stroke" transform="translate(41 7.5)" fill="#00B898"/><g transform="translate(-8989 -869)"><mask id="a"><use xlink:href="#path1_fill" fill="#fff" transform="translate(9019 869)"/></mask><g mask="url(#a)"><use xlink:href="#path2_stroke_2x" transform="translate(9019 869)" fill="#00B898"/></g></g><g transform="translate(-8989 -869)"><mask id="b"><use xlink:href="#path1_fill" fill="#fff" transform="translate(8989 869)"/></mask><g mask="url(#b)"><use xlink:href="#path2_stroke_2x" transform="translate(8989 869)" fill="#00B898"/></g></g><g transform="translate(-8989 -869)"><mask id="c"><use xlink:href="#path1_fill" fill="#fff" transform="translate(9049 869)"/></mask><g mask="url(#c)"><use xlink:href="#path2_stroke_2x" transform="translate(9049 869)" fill="#00B898"/></g></g><defs><path id="path0_stroke" d="M0 0h20v-3H0v3z"/><path id="path1_fill" d="M12 6A6 6 0 1 1 0 6a6 6 0 0 1 12 0z"/><path id="path2_stroke_2x" d="M9 6a3 3 0 0 1-3 3v6a9 9 0 0 0 9-9H9zM6 9a3 3 0 0 1-3-3h-6a9 9 0 0 0 9 9V9zM3 6a3 3 0 0 1 3-3v-6a9 9 0 0 0-9 9h6zm3-3a3 3 0 0 1 3 3h6a9 9 0 0 0-9-9v6z"/></defs></svg>